<mxfile host="app.diagrams.net" modified="2023-04-10T05:03:30.843Z" agent="Mozilla/5.0 (Windows NT 10.0; Win64; x64) AppleWebKit/537.36 (KHTML, like Gecko) Chrome/111.0.0.0 Safari/537.36" version="21.1.1" etag="_iQD6gCaZYBBI6Ir_kDa" type="github">
  <diagram name="Trang-1" id="W8uTjk8fBlMYtos0zAlF">
    <mxGraphModel>
      <root>
        <mxCell id="0" />
        <mxCell id="1" parent="0" />
      </root>
    </mxGraphModel>
  </diagram>
</mxfile>
